<svg width="25" height="24" viewBox="0 0 25 24" fill="none" xmlns="http://www.w3.org/2000/svg">
<path d="M12.7081 7.1999C11.3826 7.1999 10.3081 6.12539 10.3081 4.7999C10.3081 3.47442 11.3826 2.3999 12.7081 2.3999C14.0336 2.3999 15.1081 3.47442 15.1081 4.7999C15.1081 6.12539 14.0336 7.1999 12.7081 7.1999Z" />
<path d="M12.7081 14.3999C11.3826 14.3999 10.3081 13.3254 10.3081 11.9999C10.3081 10.6744 11.3826 9.5999 12.7081 9.5999C14.0336 9.5999 15.1081 10.6744 15.1081 11.9999C15.1081 13.3254 14.0336 14.3999 12.7081 14.3999Z" />
<path d="M12.7081 21.5999C11.3826 21.5999 10.3081 20.5254 10.3081 19.1999C10.3081 17.8744 11.3826 16.7999 12.7081 16.7999C14.0336 16.7999 15.1081 17.8744 15.1081 19.1999C15.1081 20.5254 14.0336 21.5999 12.7081 21.5999Z" />
</svg>
