<svg viewBox="0 0 600 116" fill="none" xmlns="http://www.w3.org/2000/svg">
<path d="M222.678 67.4285H218.43V86.5848H197.688V25.2649H221.591C229.691 25.2649 235.584 26.9106 239.272 30.2021C242.96 33.4936 244.804 38.9245 244.804 46.4948C244.804 54.0652 243.026 59.4632 239.47 62.6888C235.914 65.8486 230.316 67.4285 222.678 67.4285ZM223.666 53.1107C224.258 52.0574 224.555 50.28 224.555 47.7785C224.555 45.277 224.225 43.4996 223.567 42.4463C222.974 41.3931 221.822 40.8664 220.11 40.8664H218.035V54.6906H220.604C222.118 54.6906 223.139 54.1639 223.666 53.1107Z" />
<path d="M293.637 86.5848H254.522V25.2649H295.02L293.637 41.5576H275.66V48.9634H291.365V63.1825H275.66V71.5758H295.02L293.637 86.5848Z" />
<path d="M353.489 45.0137C353.489 48.9634 352.83 52.1232 351.513 54.4931C350.262 56.7971 348.287 58.8378 345.587 60.6152L354.773 86.5848H332.944L326.82 65.4537H325.239V86.5848H304.99V25.2649H331.166C338.804 25.2649 344.434 26.8777 348.056 30.1034C351.678 33.2632 353.489 38.2333 353.489 45.0137ZM327.313 53.4069C328.828 53.4069 329.882 52.979 330.474 52.1232C331.133 51.2016 331.462 49.6217 331.462 47.3835C331.462 45.1453 331.133 43.5983 330.474 42.7426C329.816 41.8868 328.795 41.4589 327.412 41.4589H324.844V53.4069H327.313Z" />
<path d="M362.623 44.9149C362.623 38.3978 364.599 33.329 368.55 29.7084C372.501 26.0878 377.966 24.2775 384.946 24.2775C391.992 24.2775 399.236 24.9358 406.677 26.2523L404.405 43.6313C396.174 41.9855 390.774 41.1627 388.206 41.1627C385.638 41.1627 384.354 41.9526 384.354 43.5325C384.354 44.125 384.551 44.5529 384.946 44.8162C385.342 45.0137 385.638 45.1782 385.835 45.3099C386.033 45.4416 386.395 45.6061 386.922 45.8036C387.515 46.0011 387.976 46.1986 388.305 46.3961C388.7 46.5277 389.885 47.0215 391.861 47.8772C393.902 48.6672 395.417 49.3255 396.404 49.8521C397.458 50.3129 398.874 51.1029 400.652 52.222C405.788 55.5793 408.356 60.5165 408.356 67.0336C408.356 73.5506 406.414 78.6195 402.529 82.2401C398.643 85.7949 393.046 87.5723 385.737 87.5723C378.493 87.5723 371.381 86.6836 364.401 84.9062L365.784 68.2185C374.608 70.4567 380.567 71.5758 383.662 71.5758C385.704 71.5758 386.724 70.8516 386.724 69.4034C386.724 68.7451 386.461 68.2185 385.934 67.8235C385.473 67.4285 384.749 67.0006 383.761 66.5398C382.839 66.079 381.456 65.4866 379.613 64.7624C377.769 63.9725 376.221 63.3142 374.97 62.7876C373.719 62.1951 372.237 61.3064 370.525 60.1215C365.257 56.5009 362.623 51.432 362.623 44.9149Z" />
<path d="M416.298 55.5793C416.298 44.5858 418.471 36.6204 422.817 31.6833C427.229 26.7461 434.439 24.2775 444.449 24.2775C454.524 24.2775 461.701 26.7131 465.982 31.5845C470.328 36.4559 472.501 44.3883 472.501 55.3818C472.501 66.3094 470.262 74.4064 465.784 79.6728C461.372 84.9391 454.194 87.5723 444.251 87.5723C434.374 87.5723 427.229 84.972 422.817 79.7715C418.471 74.571 416.298 66.5069 416.298 55.5793ZM449.98 43.8288C449.124 42.1172 447.28 41.2614 444.449 41.2614C441.617 41.2614 439.806 42.0843 439.016 43.73C438.226 45.3757 437.831 48.8976 437.831 54.2956V58.6403C437.831 64.17 438.259 67.7577 439.115 69.4034C439.971 71.0491 441.848 71.872 444.745 71.872C447.642 71.872 449.453 71.0821 450.178 69.5022C450.902 67.9222 451.264 64.4004 451.264 58.9366V54.3943C451.264 48.9963 450.836 45.4745 449.98 43.8288Z" />
<path d="M535.458 86.5848H515.308L502.862 62.3926H502.17V86.5848H483.403V25.2649H504.245L515.9 50.2471H516.493V25.2649H535.458V86.5848Z" />
<path d="M600 86.5848H579.257L577.281 77.1054H566.317L564.243 86.5848H544.389L557.131 25.2649H587.258L600 86.5848ZM575.8 64.3675L572.046 43.8288H571.651L567.799 64.3675H575.8Z" />
<path fill-rule="evenodd" clip-rule="evenodd" d="M132.348 77.0621C136.472 83.2477 134.8 91.6051 128.615 95.7288C77.1575 130.034 27.5913 112.3 5.27853 95.2167C-0.624262 90.6974 -1.74578 82.2486 2.77354 76.3458C7.29287 70.443 15.7417 69.3215 21.6445 73.8408C37.4248 85.9227 74.2779 99.5976 113.681 73.3287C119.867 69.2049 128.224 70.8764 132.348 77.0621Z" />
<path d="M107.897 2.19736C108.981 -0.732449 113.125 -0.732453 114.209 2.19735L119.605 16.7799C119.946 17.701 120.672 18.4273 121.593 18.7681L136.176 24.1642C139.106 25.2483 139.106 29.3922 136.176 30.4763L121.593 35.8723C120.672 36.2132 119.946 36.9394 119.605 37.8605L114.209 52.4431C113.125 55.3729 108.981 55.3729 107.897 52.4431L102.501 37.8605C102.16 36.9394 101.434 36.2132 100.513 35.8723L85.93 30.4763C83.0002 29.3922 83.0002 25.2483 85.93 24.1642L100.513 18.7681C101.434 18.4273 102.16 17.701 102.501 16.7799L107.897 2.19736Z" />
<path fill-rule="evenodd" clip-rule="evenodd" d="M26.9226 37.416C32.4983 37.416 37.0182 32.8961 37.0182 27.3204C37.0182 21.7448 32.4983 17.2248 26.9226 17.2248C21.347 17.2248 16.827 21.7448 16.827 27.3204C16.827 32.8961 21.347 37.416 26.9226 37.416ZM26.9226 54.242C41.791 54.242 53.8442 42.1888 53.8442 27.3204C53.8442 12.452 41.791 0.398804 26.9226 0.398804C12.0542 0.398804 0.000991821 12.452 0.000991821 27.3204C0.000991821 42.1888 12.0542 54.242 26.9226 54.242Z" />
</svg>
