<svg width="20" height="20" viewBox="0 0 20 20" fill="none" xmlns="http://www.w3.org/2000/svg">
<path d="M7.29668 3.54624L8.30618 2.09551C8.49313 1.82685 8.79971 1.66669 9.12701 1.66669H10.4575C10.7835 1.66669 11.0891 1.82567 11.2763 2.09268L12.2747 3.51695M7.29668 3.54624C7.00764 3.95861 6.52718 4.16068 6.01723 4.12465M7.29668 3.54624C7.00623 3.95762 6.52718 4.16235 6.01723 4.12465M6.01723 4.12465L4.22814 4.01233C3.9073 3.99219 3.59633 4.12752 3.39241 4.37605L2.55395 5.39794C2.33775 5.66143 2.27064 6.0169 2.37591 6.34108L2.89429 7.93755M2.89429 7.93755C2.96839 8.17783 2.97787 8.43524 2.92484 8.67836M2.89429 7.93755C2.96945 8.1774 2.97858 8.4343 2.92449 8.68085M2.92484 8.67836C2.87111 8.91859 2.75591 9.14543 2.58487 9.32912M2.92484 8.67836L2.92449 8.68085M2.58487 9.32912L1.40741 10.5955C1.17901 10.8412 1.08898 11.185 1.16766 11.511L1.46121 12.7275C1.53963 13.0524 1.77528 13.3168 2.08918 13.4318L3.70698 14.0247C3.9444 14.1166 4.14951 14.266 4.30474 14.4541M2.58487 9.32912C2.75696 9.14694 2.87111 8.92083 2.92449 8.68085M4.30474 14.4541C4.45892 14.6427 4.56393 14.8704 4.60467 15.117M4.30474 14.4541C4.46032 14.6427 4.56569 14.8698 4.60467 15.117M4.30474 14.4541L4.30228 14.4514C4.2921 14.439 4.28121 14.4262 4.27067 14.4142M4.60467 15.117L4.8802 16.8094C4.93346 17.1366 5.14542 17.4162 5.44609 17.5558L6.64534 18.1126C6.93641 18.2477 7.27465 18.2349 7.5547 18.0783L9.0752 17.2276M9.0752 17.2276C9.29611 17.1035 9.54266 17.0413 9.78921 17.041M9.0752 17.2276C9.16265 17.1778 9.25432 17.1381 9.34844 17.1083C9.49138 17.063 9.64029 17.0407 9.78921 17.041M9.78921 17.041C9.9174 17.0412 10.0456 17.0582 10.1706 17.0917C10.2869 17.1228 10.4 17.1682 10.5071 17.2276M9.78921 17.041C10.0368 17.0406 10.2848 17.1028 10.5071 17.2276M10.5071 17.2276L12.102 18.091C12.3833 18.2433 12.7204 18.2518 13.0091 18.114L14.2028 17.5438C14.5024 17.4007 14.7114 17.1183 14.7607 16.7899L15.0071 15.1483M15.0071 15.1483C15.0461 14.9004 15.1497 14.671 15.3035 14.4807M15.0071 15.1483C15.0447 14.8998 15.149 14.6708 15.3035 14.4807M15.3035 14.4807C15.4563 14.2923 15.6589 14.1423 15.895 14.0495M15.3035 14.4807C15.456 14.2916 15.6579 14.1411 15.895 14.0495M15.895 14.0495L17.5321 13.4079C17.84 13.2872 18.0684 13.022 18.1421 12.6995L18.4243 11.464C18.4977 11.1423 18.4079 10.8052 18.184 10.5628L16.9978 9.27832M16.9978 9.27832C16.8236 9.09399 16.702 8.87381 16.643 8.6398M16.9978 9.27832C16.9159 9.19223 16.8457 9.09812 16.7884 8.99833C16.7231 8.88502 16.6743 8.7644 16.643 8.6398M16.643 8.6398C16.5851 8.40746 16.5886 8.16126 16.662 7.92296L17.174 6.28169C17.2744 5.95989 17.2059 5.60916 16.9919 5.34878L16.1768 4.35749C15.9706 4.1066 15.6553 3.97152 15.3313 3.99525L13.5647 4.12465M13.5647 4.12465C13.3111 4.14256 13.0618 4.09425 12.8398 3.99034M13.5647 4.12465C13.3108 4.14359 13.0618 4.0949 12.8398 3.99034M12.8398 3.99034C12.6164 3.8851 12.4205 3.72327 12.2747 3.51695M12.8398 3.99034C12.6161 3.88549 12.4198 3.72409 12.2747 3.51695M2.92449 8.68085L2.92519 8.6772M12.6133 10.0089C12.6133 11.563 11.325 12.8228 9.73617 12.8228C8.14731 12.8228 6.85908 11.563 6.85908 10.0089C6.85908 8.45474 8.14731 7.19491 9.73617 7.19491C11.325 7.19491 12.6133 8.45474 12.6133 10.0089Z" stroke="#222222" stroke-width="2"/>
</svg>
