<svg width="267" height="267" viewBox="0 0 267 267" fill="none" xmlns="http://www.w3.org/2000/svg">
<g transform="translate(0.000000,267.000000) scale(1,-1) rotate(180deg)" fill="#000000" stroke="none">
<path fill-rule="evenodd" clip-rule="evenodd" d="M205.407 155.834C210.099 162.872 208.197 172.381 201.159 177.073C142.609 216.107 86.2102 195.929 60.8217 176.491C54.1053 171.348 52.8292 161.735 57.9715 155.019C63.1137 148.302 72.7272 147.026 79.4436 152.168C97.3992 165.916 139.332 181.475 184.167 151.586C191.205 146.893 200.715 148.795 205.407 155.834Z" />
<path d="M177.585 70.6492C178.819 67.3155 183.534 67.3155 184.768 70.6492L190.907 87.2419C191.295 88.29 192.122 89.1163 193.17 89.5042L209.762 95.644C213.096 96.8776 213.096 101.593 209.762 102.826L193.17 108.966C192.122 109.354 191.295 110.18 190.907 111.228L184.768 127.821C183.534 131.155 178.819 131.155 177.585 127.821L171.445 111.228C171.058 110.18 170.231 109.354 169.183 108.966L152.591 102.826C149.257 101.593 149.257 96.8776 152.59 95.644L169.183 89.5042C170.231 89.1163 171.058 88.29 171.445 87.2419L177.585 70.6492Z" />
<path fill-rule="evenodd" clip-rule="evenodd" d="M85.4498 110.723C91.7941 110.723 96.9371 105.579 96.9371 99.2353C96.9371 92.8911 91.7941 87.748 85.4498 87.748C79.1056 87.748 73.9626 92.8911 73.9626 99.2353C73.9626 105.579 79.1056 110.723 85.4498 110.723ZM85.4498 129.868C102.368 129.868 116.082 116.153 116.082 99.2353C116.082 82.3173 102.368 68.6027 85.4498 68.6027C68.5319 68.6027 54.8172 82.3173 54.8172 99.2353C54.8172 116.153 68.5319 129.868 85.4498 129.868Z" />
</g>
</svg>
